<svg xmlns="http://www.w3.org/2000/svg" viewBox="0 0 400 300" role="img" aria-labelledby="t d"><title id="t">Dibujo a mano: estación total sobre un trípode midiendo el ángulo vertical, el ángulo horizontal y la distancia hasta un prisma en un jalón, con vista de perfil y de planta</title><desc id="d">Perfil: el instrumento sobre el punto A con altura de instrumento ai mide el ángulo vertical y la distancia inclinada al prisma del punto B con altura ap. Planta: el ángulo horizontal Hz se mide desde un punto de referencia R. Con eso se calculan E, N y cota de B.</desc><g stroke-linecap="round" stroke-linejoin="round"><path d="M16 224Q131 223.1 246 224" fill="none" stroke="#1F2430" stroke-width="2.2"/><path d="M74 152Q59.5 187.8 46 224" fill="none" stroke="#1F2430" stroke-width="3"/><path d="M74 152Q87.7 188.1 102 224" fill="none" stroke="#1F2430" stroke-width="3"/><path d="M74 152Q72.9 188 74 224" fill="none" stroke="#1F2430" stroke-width="2.4"/><path d="M59 134Q74 133.7 89 134Q89.2 143 89 152Q74 151.6 59 152Q59.1 143 59 134Z" fill="#cfd3da" fill-opacity="0.9" stroke="#1F2430" stroke-width="2.4"/><path d="M61 100Q74 99.7 87 100Q86.7 117 87 134Q74 134.1 61 134Q61.5 117 61 100Z" fill="#E63946" fill-opacity="0.9" stroke="#1F2430" stroke-width="2.4"/><path d="M87 108Q95 107.7 103 108Q103.1 112.5 103 117Q95 116.7 87 117Q86.9 112.5 87 108Z" fill="#2EC4B6" stroke="#1F2430" stroke-width="2.4"/><path d="M74 110.9C77.3 110.9 80.1 113.7 80.1 117C80.1 120.3 77.3 123.1 74 123.1C70.7 123.1 67.8 120.3 67.8 117C67.8 113.7 70.7 110.9 74 110.9Z" fill="#FFC93C" stroke="#1F2430" stroke-width="1.8"/><path d="M67 224Q74 224 81 224Q77.6 218.9 74 214Q70.7 219.1 67 224Z" fill="#1F2430" stroke="#1F2430" stroke-width="2.4"/><path d="M212 108Q211.6 166 212 224" fill="none" stroke="#1F2430" stroke-width="3.4"/><path d="M199 84Q212 83.5 225 84Q225.2 96 225 108Q212 108.5 199 108Q198.6 96 199 84Z" fill="#2EC4B6" fill-opacity="0.9" stroke="#1F2430" stroke-width="2.4"/><path d="M212 91.2C214.8 91.2 217 93.2 217 96C217 98.8 214.8 101.2 212 101.2C209.2 101.2 207 98.8 207 96C207 93.2 209.2 91.2 212 91.2Z" fill="none" stroke="#1F2430" stroke-width="1.6"/><path d="M205 224Q212 224.1 219 224Q215.7 218.9 212 214Q208.4 218.9 205 224Z" fill="#1F2430" stroke="#1F2430" stroke-width="2.4"/><path d="M74 114Q135.9 104.6 198 97" fill="none" stroke="#E63946" stroke-width="2.4" stroke-dasharray="7 5"/><path d="M74 114Q74.2 92 74 70" fill="none" stroke="#1F2430" stroke-width="1.4" stroke-dasharray="3 4"/><path d="M74 86 A28 28 0 0 1 102 111" fill="none" stroke="#C75A0E" stroke-width="2.2"/><path d="M28 224Q28.3 170.5 28 117" fill="none" stroke="#5A6475" stroke-width="1.8"/><path d="M30.4 121.4L28 117L25.6 121.4" fill="none" stroke="#5A6475" stroke-width="1.8"/><path d="M25.6 219.6L28 224L30.4 219.6" fill="none" stroke="#5A6475" stroke-width="1.8"/><path d="M238 224Q237.2 160 238 96" fill="none" stroke="#5A6475" stroke-width="1.8"/><path d="M240.4 100.4L238 96L235.6 100.4" fill="none" stroke="#5A6475" stroke-width="1.8"/><path d="M235.6 219.6L238 224L240.4 219.6" fill="none" stroke="#5A6475" stroke-width="1.8"/><path d="M300 160Q320.2 129.4 342 100" fill="none" stroke="#2EC4B6" stroke-width="2.2" stroke-dasharray="6 4"/><path d="M300 160Q338.7 172.9 378 184" fill="none" stroke="#E63946" stroke-width="2.4"/><path d="M317.2 135.4 A30 30 0 0 1 328.7 168.8" fill="none" stroke="#C75A0E" stroke-width="2.2"/><path d="M300 155.5C302.5 155.5 304.4 157.5 304.4 160C304.4 162.5 302.5 164.5 300 164.5C297.5 164.5 295.4 162.5 295.4 160C295.4 157.5 297.5 155.5 300 155.5Z" fill="#E63946" stroke="#1F2430" stroke-width="2.4"/><path d="M342 95.6C344.5 95.6 346.5 97.5 346.5 100C346.5 102.5 344.5 104.4 342 104.4C339.5 104.4 337.6 102.5 337.6 100C337.6 97.5 339.5 95.6 342 95.6Z" fill="#2EC4B6" stroke="#1F2430" stroke-width="2.4"/><path d="M378 179.4C380.5 179.4 382.4 181.5 382.4 184C382.4 186.5 380.5 188.3 378 188.3C375.5 188.3 373.6 186.5 373.6 184C373.6 181.5 375.5 179.4 378 179.4Z" fill="#2EC4B6" stroke="#1F2430" stroke-width="2.4"/></g><g stroke="none" fill="#1F2430" font-family="Archivo, 'Segoe UI', system-ui, sans-serif"><text x="16" y="24" font-size="15" font-weight="700">Estación total: ángulos y distancia</text><text x="16" y="58" font-size="12" font-weight="700">Perfil</text><text x="262" y="58" font-size="12" font-weight="700">Planta</text><text x="82" y="72" font-size="11" font-weight="600" fill="#C75A0E">ángulo vertical</text><text x="118" y="138" font-size="11" font-weight="600" fill="#C0293A"><tspan x="118">distancia</tspan><tspan x="118" dy="13.4">inclinada</tspan></text><text x="33" y="172" font-size="11" font-weight="700">ai</text><text x="244" y="188" font-size="11" font-weight="700">ap</text><text x="74" y="240" font-size="11" font-weight="600" text-anchor="middle">A (conocido)</text><text x="212" y="240" font-size="11" font-weight="600" text-anchor="middle">B (prisma)</text><text x="212" y="77" font-size="11" font-weight="600" text-anchor="middle">Prisma</text><text x="338" y="160" font-size="12" font-weight="700" fill="#C75A0E">Hz</text><text x="292" y="176" font-size="12" font-weight="700" text-anchor="end">A</text><text x="350" y="102" font-size="12" font-weight="700">R</text><text x="374" y="202" font-size="12" font-weight="700" text-anchor="end">B</text><text x="262" y="206" font-size="11" fill="#5A6475">R: referencia</text><text x="262" y="222" font-size="11" fill="#5A6475">d: dist. horizontal</text><text x="262" y="240" font-size="11" font-weight="600">E₂ = E₁ + d·sen Az</text><text x="262" y="254" font-size="11" font-weight="600">N₂ = N₁ + d·cos Az</text><text x="16" y="262" font-size="11" font-weight="600">Z₂ = Z₁ + ai + Δz − ap</text><text x="16" y="276" font-size="11" fill="#5A6475">ai: instrumento · ap: prisma</text><text x="200" y="292" font-size="11" font-weight="600" text-anchor="middle">Típico: ángulo 1″ a 5″, distancia a mm</text></g></svg>