<svg xmlns="http://www.w3.org/2000/svg" viewBox="0 0 400 300" role="img" aria-labelledby="t"><title id="t">Dibujo a mano: comparativa de captura masiva, escáner terrestre TLS sobre trípode, SLAM portátil y dron</title><g fill="none" stroke="currentColor" stroke-width="3" stroke-linecap="round" stroke-linejoin="round"><path d="M66 192L52 150M66 192L80 150M66 192L66 150"/><path d="M48 108L84 108L84 150L48 150Z" fill="#2EC4B6"/><circle cx="66" cy="124" r="8" fill="#FFC93C"/><path d="M92 120Q124 112 140 90M92 132Q130 134 150 120" stroke="#E63946" stroke-dasharray="3 6" stroke-width="2"/><circle cx="214" cy="84" r="12" fill="#FFC93C"/><path d="M214 96L214 140M214 108L190 128M214 108L238 120M214 140L200 192M214 140L230 192"/><path d="M236 116L254 104L260 118L244 128Z" fill="#E63946"/><path d="M244 104Q232 84 222 86" stroke="#E63946" stroke-dasharray="3 6" stroke-width="2"/><path d="M308 90L368 90M320 76L356 76M338 76L338 90"/><path d="M302 86Q296 80 302 74M374 86Q380 80 374 74"/><path d="M326 90L350 90L346 106L330 106Z" fill="#8AC926"/><path d="M338 110L338 150M318 150L358 150L338 112Z" stroke="#4CC9F0" stroke-dasharray="4 6" fill="#4CC9F0" fill-opacity=".3"/><path d="M10 200L390 200" stroke-width="2.2" stroke-dasharray="2 8"/></g><g fill="currentColor" stroke="none" font-family="Archivo, system-ui, sans-serif" font-size="12" font-weight="400"><text x="14" y="28" font-size="16" font-weight="600">TLS</text><text x="14" y="44">escáner terrestre</text><text x="176" y="28" font-size="16" font-weight="600">SLAM</text><text x="160" y="44">portátil, caminando</text><text x="316" y="28" font-size="16" font-weight="600">Dron</text><text x="286" y="44">fotogrametría o LiDAR</text><text x="14" y="222">Precisión: mm</text><text x="14" y="240">Ritmo: lento, por estación</text><text x="14" y="258">Costo: alto</text><text x="160" y="222">Precisión: cm</text><text x="160" y="240">Ritmo: rápido</text><text x="160" y="258">Costo: medio</text><text x="296" y="222">Precisión: cm a dm</text><text x="296" y="240">Ritmo: hectáreas</text><text x="296" y="258">Cumple reglas DGAC</text></g></svg>
