<svg xmlns="http://www.w3.org/2000/svg" viewBox="0 0 64 64" width="64" height="64" role="img" aria-label="descartes">
  <defs>
    <linearGradient id="g" x1="0" y1="0" x2="0" y2="1"><stop offset="0" stop-color="#2A86F0"/><stop offset="1" stop-color="#0A3F9E"/></linearGradient>
    <clipPath id="t"><rect x="2" y="2" width="60" height="60" rx="9"/></clipPath>
  </defs>
  <rect x="2" y="4" width="60" height="60" rx="9" fill="#000" opacity=".22"/>
  <g clip-path="url(#t)">
    <rect width="64" height="64" fill="url(#g)"/>
    <path d="M0 0H64V12C40 8 18 12 0 20Z" fill="#fff" opacity=".10"/>
    <rect y="57" width="64" height="7" fill="#5CC8FF"/>
  </g>
  <rect x="2.6" y="2.6" width="58.8" height="58.8" rx="8.6" fill="none" stroke="#fff" stroke-opacity=".30" stroke-width="1.2"/>
  <g transform="translate(0 -2.5) scale(1 .96)"><circle cx="12" cy="44" r="1.6" fill="#fff"/><circle cx="18" cy="46" r="1.6" fill="#fff"/><circle cx="24" cy="47" r="1.6" fill="#fff"/><circle cx="30" cy="48" r="1.6" fill="#fff"/><circle cx="36" cy="47" r="1.6" fill="#fff"/><circle cx="42" cy="46" r="1.6" fill="#fff"/><circle cx="48" cy="44" r="1.6" fill="#fff"/><circle cx="53" cy="41" r="1.6" fill="#fff"/><circle cx="16" cy="38" r="2" fill="#fff"/><circle cx="23" cy="40" r="2" fill="#fff"/><circle cx="30" cy="41" r="2" fill="#fff"/><circle cx="37" cy="40" r="2" fill="#fff"/><circle cx="44" cy="38" r="2" fill="#fff"/><circle cx="50" cy="35" r="1.6" fill="#fff"/><circle cx="21" cy="32" r="2.2" fill="#fff"/><circle cx="28" cy="33" r="2.2" fill="#fff"/><circle cx="35" cy="32" r="2.2" fill="#fff"/><circle cx="42" cy="30" r="2.2" fill="#fff"/><circle cx="26" cy="25" r="2.4" fill="#fff"/><circle cx="33" cy="24" r="2.4" fill="#fff"/><circle cx="39" cy="23" r="2.2" fill="#fff"/><circle cx="31" cy="17" r="2.6" fill="#fff"/><circle cx="13" cy="40" r="1.4" fill="#fff"/><circle cx="46" cy="47" r="1.4" fill="#fff"/></g>
</svg>
