<svg xmlns="http://www.w3.org/2000/svg" viewBox="0 0 64 64" width="64" height="64" role="img" aria-label="GIS">
  <defs>
    <linearGradient id="g" x1="0" y1="0" x2="1" y2="1"><stop offset="0" stop-color="#34C77B"/><stop offset="1" stop-color="#0B6B45"/></linearGradient>
    <clipPath id="t"><rect x="2" y="2" width="60" height="60" rx="14"/></clipPath>
  </defs>
  <rect x="2" y="4" width="60" height="60" rx="14" fill="#000" opacity=".22"/>
  <g clip-path="url(#t)"><rect width="64" height="64" fill="url(#g)"/><path d="M0 0H64V22C44 16 20 18 0 28Z" fill="#fff" opacity=".12"/></g>
  <rect x="2.6" y="2.6" width="58.8" height="58.8" rx="13.4" fill="none" stroke="#fff" stroke-opacity=".32" stroke-width="1.2"/>
  <g fill="none" stroke="#fff" stroke-width="3.2" stroke-linecap="round" stroke-linejoin="round"><circle cx="30" cy="31" r="17"/><path d="M13 31H47M30 14C22 22 22 40 30 48M30 14C38 22 38 40 30 48"/></g><path d="M46 30C46 23 53 23 53 30C53 35 49.5 38 49.5 38C49.5 38 46 35 46 30Z" fill="#fff"/><circle cx="49.5" cy="29.5" r="1.8" fill="#0B6B45"/>
</svg>
