<svg xmlns="http://www.w3.org/2000/svg" viewBox="0 0 64 64" width="64" height="64" role="img" aria-label="openflows">
  <defs>
    <linearGradient id="g" x1="0" y1="0" x2="0" y2="1"><stop offset="0" stop-color="#2FBF6E"/><stop offset="1" stop-color="#0B6A3B"/></linearGradient>
    <clipPath id="t"><rect x="2" y="2" width="60" height="60" rx="9"/></clipPath>
  </defs>
  <rect x="2" y="4" width="60" height="60" rx="9" fill="#000" opacity=".22"/>
  <g clip-path="url(#t)">
    <rect width="64" height="64" fill="url(#g)"/>
    <path d="M0 0H64V12C40 8 18 12 0 20Z" fill="#fff" opacity=".10"/>
    <rect y="57" width="64" height="7" fill="#B6F5CF"/>
  </g>
  <rect x="2.6" y="2.6" width="58.8" height="58.8" rx="8.6" fill="none" stroke="#fff" stroke-opacity=".30" stroke-width="1.2"/>
  <g transform="translate(0 -2.5) scale(1 .96)"><path fill="#fff" fill-opacity=".22" stroke="#fff" stroke-width="3.2" stroke-linecap="round" stroke-linejoin="round" d="M32 11C32 11 17 27 17 38A15 15 0 0 0 47 38C47 27 32 11 32 11Z"/><path fill="none" stroke="#fff" stroke-width="3.2" stroke-linecap="round" stroke-linejoin="round" d="M24 40C28 37 30 43 34 40S38 38 40 40"/></g>
</svg>
