<svg xmlns="http://www.w3.org/2000/svg" viewBox="0 0 64 64" width="64" height="64" role="img" aria-label="staad">
  <defs>
    <linearGradient id="g" x1="0" y1="0" x2="0" y2="1"><stop offset="0" stop-color="#E5483F"/><stop offset="1" stop-color="#8F1612"/></linearGradient>
    <clipPath id="t"><rect x="2" y="2" width="60" height="60" rx="9"/></clipPath>
  </defs>
  <rect x="2" y="4" width="60" height="60" rx="9" fill="#000" opacity=".22"/>
  <g clip-path="url(#t)">
    <rect width="64" height="64" fill="url(#g)"/>
    <path d="M0 0H64V12C40 8 18 12 0 20Z" fill="#fff" opacity=".10"/>
    <rect y="57" width="64" height="7" fill="#FFC2BC"/>
  </g>
  <rect x="2.6" y="2.6" width="58.8" height="58.8" rx="8.6" fill="none" stroke="#fff" stroke-opacity=".30" stroke-width="1.2"/>
  <g transform="translate(0 -2.5) scale(1 .96)"><path fill="none" stroke="#fff" stroke-width="3.2" stroke-linecap="round" stroke-linejoin="round" d="M18 50V18M46 50V18M12 18H52M18 34H46M18 34L46 18M18 50L46 34"/><path fill="none" stroke="#fff" stroke-width="3.2" stroke-linecap="round" stroke-linejoin="round" d="M12 52H24M40 52H52"/></g>
</svg>
