<svg xmlns="http://www.w3.org/2000/svg" viewBox="0 0 300 200" role="img" aria-labelledby="t"><title id="t">Flechas dibujadas a mano para decorar</title><g fill="none" stroke="currentColor" stroke-width="3" stroke-linecap="round" stroke-linejoin="round"><path d="M21 40C29 43 56 55 72 54C89 52 112 34 120 30"/><path d="M120 30Q117 36 113 41"/><path d="M120 30Q113 29 108 29"/><path d="M151 30C162 29 198 19.8 218 26C238 33 262 63 270 70" stroke="#E63946"/><path d="M270 70Q263 69 257 68" stroke="#E63946"/><path d="M270 70Q267 64 265 57" stroke="#E63946"/><path d="M31 150C35 141 48 99 60 99C71 99 89 148 100 150C112 152 125 117 129 110" stroke="#2EC4B6" stroke-width="3.4"/><path d="M130 110C132 109 136 105 139 103C143 100 148 96 150 95" stroke="#2EC4B6"/><path d="M150 95Q149 101 146 105" stroke="#2EC4B6"/><path d="M150 95Q144 96 139 96" stroke="#2EC4B6"/><path d="M171 169C180 169 210 176 225 169C239 163 254 136 260 130" stroke="#FF8C42"/><path d="M260 130Q258 137 258 143" stroke="#FF8C42"/><path d="M260 130Q254 131 247 133" stroke="#FF8C42"/><path d="M190 100C193 96 203 80 210 80C217 80 229 94 230 100C230 105 220 112 215 112C210 112 202 102 200 100" stroke-width="2.6"/><path d="M20 190C25 190 41 194 51 193C61 191 75 182 79 180"/><path d="M80 180Q77 183 75 187"/><path d="M80 180Q75 179 71 178"/><path d="M100 81Q100 80 101 80"/><path d="M90 70Q100 80 110 90"/></g></svg>